HIERARCHY
ROOT Hips
{
	OFFSET -3.958830 18.904000 13.208200
	CHANNELS 6 Xposition Yposition Zposition Zrotation Yrotation Xrotation 
	JOINT LHipJoint
	{
		OFFSET 0.000000 0.000000 0.000000
		CHANNELS 3 Zrotation Yrotation Xrotation
		JOINT LeftUpLeg
		{
			OFFSET 1.800000 -1.400000 0.085000
			CHANNELS 3 Zrotation Yrotation Xrotation
			JOINT LeftLeg
			{
				OFFSET 2.215000 -6.000000 0.000000
				CHANNELS 3 Zrotation Yrotation Xrotation
				JOINT LeftFoot
				{
					OFFSET 2.500000 -6.900000 0.000000
					CHANNELS 3 Zrotation Yrotation Xrotation
					JOINT LeftToeBase
					{
						OFFSET 0.200000 -0.500000 1.950000
						CHANNELS 3 Zrotation Yrotation Xrotation
						End Site
						{
							OFFSET 0.000000 0.000000 0.000000
						}
					}
				}
			}
		}
	}
	JOINT RHipJoint
	{
		OFFSET 0.000000 0.000000 0.000000
		CHANNELS 3 Zrotation Yrotation Xrotation
		JOINT RightUpLeg
		{
			OFFSET -1.800000 -1.400000 0.085000
			CHANNELS 3 Zrotation Yrotation Xrotation
			JOINT RightLeg
			{
				OFFSET -2.215000 -6.000000 0.000000
				CHANNELS 3 Zrotation Yrotation Xrotation
				JOINT RightFoot
				{
					OFFSET -2.500000 -6.900000 0.000000
					CHANNELS 3 Zrotation Yrotation Xrotation
					JOINT RightToeBase
					{
						OFFSET -0.200000 -0.500000 1.950000
						CHANNELS 3 Zrotation Yrotation Xrotation
						End Site
						{
							OFFSET 0.000000 0.000000 0.000000
						}
					}
				}
			}
		}
	}
	JOINT LowerBack
	{
		OFFSET 0.000000 0.000000 0.000000
		CHANNELS 3 Zrotation Yrotation Xrotation
		JOINT Spine
		{
			OFFSET -0.087000 1.940000 -0.288900
			CHANNELS 3 Zrotation Yrotation Xrotation
			JOINT Spine1
			{
				OFFSET 0.000000 1.950000 0.060000
				CHANNELS 3 Zrotation Yrotation Xrotation
				JOINT Neck
				{
					OFFSET 0.000000 0.000000 0.000000
					CHANNELS 3 Zrotation Yrotation Xrotation
					JOINT Neck1
					{
						OFFSET 0.000000 1.600000 0.340000
						CHANNELS 3 Zrotation Yrotation Xrotation
						JOINT Head
						{
							OFFSET 0.000000 1.667000 -0.240000
							CHANNELS 3 Zrotation Yrotation Xrotation
							End Site
							{
								OFFSET 0.000000 0.000000 0.000000
							}
						}
					}
				}
				JOINT LeftShoulder
				{
					OFFSET 0.000000 0.000000 0.000000
					CHANNELS 3 Zrotation Yrotation Xrotation
					JOINT LeftArm
					{
						OFFSET 2.700000 1.550000 -0.730000
						CHANNELS 3 Zrotation Yrotation Xrotation
						JOINT LeftForeArm
						{
							OFFSET 5.450000 0.000000 0.000000
							CHANNELS 3 Zrotation Yrotation Xrotation
							JOINT LeftHand
							{
								OFFSET 3.450000 0.000000 0.000000
								CHANNELS 3 Zrotation Yrotation Xrotation
								JOINT LeftHandIndex1
								{
									OFFSET 0.750000 0.000000 0.000000
									CHANNELS 3 Zrotation Yrotation Xrotation
									End Site
									{
										OFFSET 0.000000 0.000000 0.000000
									}
								}
							}
						}
					}
				}
				JOINT RightShoulder
				{
					OFFSET 0.000000 0.000000 0.000000
					CHANNELS 3 Zrotation Yrotation Xrotation
					JOINT RightArm
					{
						OFFSET -2.700000 1.550000 -0.730000
						CHANNELS 3 Zrotation Yrotation Xrotation
						JOINT RightForeArm
						{
							OFFSET -5.450000 0.000000 0.000000
							CHANNELS 3 Zrotation Yrotation Xrotation
							JOINT RightHand
							{
								OFFSET -3.450000 0.000000 0.000000
								CHANNELS 3 Zrotation Yrotation Xrotation
								JOINT RightHandIndex1
								{
									OFFSET -0.750000 0.000000 0.000000
									CHANNELS 3 Zrotation Yrotation Xrotation
									End Site
									{
										OFFSET 0.000000 0.000000 0.000000
									}
								}
							}
						}
					}
				}
			}
		}
	}
}
MOTION
Frames: 13
Frame Time: 0.016667
1.874850 16.918490 -0.298830 0.285961 6.707742 9.574494 -15.412693 13.261962 2.687723 4.613116 -0.632189 -2.289156 -9.070334 5.429516 3.785325 -0.638870 5.123176 3.242153 0.491550 0.174670 0.058190 18.401333 -8.944596 3.355064 12.071419 5.583513 -28.809229 2.463643 -2.032870 8.418993 0.327654 -1.817411 4.048717 0.450020 0.849290 0.145600 -3.469605 -4.279187 -6.964414 14.234232 -11.327332 4.432157 -15.134876 -9.014499 10.063586 2.520822 -7.744377 -9.279032 -14.114849 7.289251 15.332401 1.199150 0.657640 -3.752460 -13.739446 -3.513576 -0.007475 -39.897374 -20.933123 -1.236639 61.605592 -67.817192 -41.642037 -3.775714 1.890504 0.205610 0.583200 -0.573350 0.416340 8.849668 3.750598 8.768823 32.782315 -16.359871 -6.082938 64.676322 40.503321 17.059173 1.353493 -2.284132 -0.464010 0.516070 0.071910 -0.156480 
1.891060 16.927560 -0.170730 0.376551 4.862790 8.702189 -15.375374 13.346369 2.583326 4.360516 -0.479247 -2.062885 -8.550708 5.880648 6.898683 -0.633231 5.177780 3.211635 0.506120 0.191770 0.068630 18.416959 -9.110174 3.333423 12.005671 5.174674 -26.496851 2.754749 -2.095009 7.843207 0.297077 -1.936878 4.013891 0.457650 0.837970 0.135530 -3.541286 -4.119177 -6.882452 14.337618 -10.680926 4.188920 -15.141952 -8.419889 9.867858 2.426577 -8.120178 -9.136939 -14.919260 7.983889 15.696050 1.463780 0.889630 -3.622630 -14.612949 -3.735118 -0.328523 -38.652351 -20.639929 -1.539812 49.634938 -65.374254 -32.011708 -3.833433 2.322865 0.206310 0.570620 -0.568850 0.419660 9.856673 4.362017 8.900045 30.118276 -16.058393 -5.144696 66.707915 41.943660 18.881267 1.385987 -2.310605 -0.459900 0.515310 0.059000 -0.155730 
1.900820 16.954330 -0.041120 0.489220 3.326991 7.878748 -15.337650 13.452826 2.465723 3.982099 -0.490028 -2.560039 -7.543404 6.251941 10.898437 -0.616457 5.229650 3.179285 0.510890 0.213900 0.046140 18.425791 -9.301383 3.292464 11.405631 4.652494 -24.383810 3.320057 -2.267568 7.655470 0.273126 -2.108211 3.972782 0.465150 0.849480 0.135100 -3.603063 -3.971473 -6.768923 14.419641 -10.086183 3.769441 -14.941308 -7.902431 9.702737 2.221697 -8.435364 -9.009745 -15.604379 8.704444 15.926247 1.804920 1.030530 -2.982780 -15.202377 -3.863022 -0.566642 -37.925153 -20.512174 -1.380948 37.819848 -61.156135 -22.762491 -3.910085 2.653294 0.174660 0.580430 -0.577870 0.434470 10.813867 4.854466 8.960358 28.095262 -15.869794 -4.529159 67.839051 43.059958 20.118509 1.414499 -2.341071 -0.442120 0.508030 0.050280 -0.134570 
1.895370 16.995780 0.075310 1.253944 2.751395 6.597719 -15.326753 13.626159 2.437708 3.504884 -0.835747 -3.466247 -6.940800 6.744767 15.858750 -0.552131 5.417567 3.082683 0.553960 0.258630 0.085760 18.392443 -9.469659 3.179747 9.629552 3.836355 -22.280489 4.600824 -2.677499 8.037777 0.200545 -2.281453 3.910193 0.462440 0.791650 0.126640 -3.568970 -4.067410 -6.705477 13.130480 -9.908213 4.114391 -14.287763 -7.721844 9.514126 1.938596 -8.705976 -9.015268 -16.442029 9.251168 16.843153 2.328750 1.209000 -3.420780 -15.753890 -4.380832 -0.610703 -37.338346 -20.483301 -1.289571 28.315673 -55.774771 -15.699798 -3.893710 2.840615 0.203010 0.525120 -0.529270 0.447390 11.882073 5.732355 9.040044 27.014749 -15.054706 -4.263811 68.295174 43.323419 20.604836 1.475816 -2.334576 -0.411590 0.488330 0.002810 -0.131870 
1.871500 17.034210 0.189540 1.804681 0.419645 5.630096 -15.313631 13.630409 2.491734 3.703874 -1.606032 -4.858157 -8.287584 7.841534 20.960942 -0.437539 5.960575 2.849213 0.576390 0.288180 0.103900 18.380069 -9.582955 3.092957 8.724533 3.347248 -20.574670 5.090371 -3.013320 9.047465 0.145274 -2.447336 3.841289 0.461870 0.754470 0.122470 -3.547731 -3.990608 -6.692810 11.921321 -9.070741 4.216701 -13.453008 -6.865162 9.245456 1.554340 -9.095273 -8.960438 -17.396565 9.614286 17.564213 2.673650 1.105460 -3.836700 -15.814896 -4.439511 -0.600855 -37.752952 -20.313482 -0.867539 21.397607 -50.001520 -10.925229 -3.896660 2.932799 0.217440 0.487940 -0.499400 0.443940 12.665273 6.528537 8.857086 26.149250 -13.219760 -3.814077 67.930262 42.557046 20.281288 1.536848 -2.306823 -0.387810 0.476980 -0.013460 -0.126640 
1.841610 17.074180 0.308780 2.257524 -2.162900 4.253114 -15.296030 13.558023 2.629943 4.618531 -2.623016 -6.147003 -10.588404 9.496750 25.949628 -0.219720 6.772914 2.532534 0.593960 0.303740 0.127840 18.382388 -9.654249 2.993999 8.193994 2.780306 -18.171029 4.947199 -3.241873 9.765700 0.068590 -2.589616 3.807726 0.433200 0.696370 0.101690 -3.550459 -3.905157 -6.758401 10.957891 -8.239691 4.682902 -12.877685 -5.950671 9.007410 1.275659 -9.574225 -9.235364 -18.905694 10.297734 19.202632 3.499110 1.198000 -4.299080 -15.830569 -4.914048 -0.359920 -37.913889 -19.808179 -0.580559 15.619347 -43.462533 -7.346069 -3.855321 2.959209 0.263800 0.419960 -0.444310 0.450700 13.179411 7.793898 8.969351 26.367578 -11.542962 -3.889872 67.508420 41.743598 19.795723 1.616215 -2.242621 -0.364080 0.470280 -0.049140 -0.123830 
1.822670 17.115090 0.418310 2.398566 -6.184401 2.471587 -15.259637 13.390933 2.887341 6.368865 -3.561348 -6.906313 -14.340312 12.081268 30.352008 0.089625 7.886383 2.096590 0.598650 0.284890 0.197160 18.399691 -9.728078 2.900692 7.703464 2.154595 -15.346390 4.818309 -3.588380 10.741837 -0.047063 -2.745521 3.744239 0.363120 0.565110 0.085810 -3.595682 -3.682221 -6.965456 10.495815 -6.863108 5.917774 -12.284621 -4.474568 8.511393 1.491064 -9.797897 -9.739227 -20.421512 10.974538 22.631163 3.625770 1.986220 -5.400200 -16.858251 -6.059129 -0.068907 -37.513162 -19.205593 -0.246176 10.934854 -36.097700 -4.741042 -3.785554 2.931883 0.370120 0.306690 -0.340670 0.414040 13.689179 9.651401 9.420530 26.432741 -10.042235 -4.197600 67.713991 41.472402 19.874428 1.726294 -2.142677 -0.334890 0.428220 -0.080810 -0.159590 
1.806960 17.139680 0.520560 2.374077 -8.952655 0.780145 -15.233536 13.164831 3.209446 8.687668 -4.650732 -8.317954 -17.955911 15.111835 35.031932 0.424798 9.180393 1.610745 0.612420 0.269670 0.273790 18.415668 -9.754753 2.802033 7.187390 1.621685 -12.967962 5.007162 -4.049864 12.140082 -0.163375 -2.937175 3.657966 0.305880 0.450060 0.092200 -3.641694 -3.458819 -7.211990 10.360982 -6.029783 7.263441 -12.036494 -3.541172 7.915628 1.850058 -9.609234 -10.111147 -21.052082 11.672929 26.119610 3.601030 2.837540 -6.574410 -18.252033 -7.108281 0.266635 -36.960465 -17.969345 -0.070344 6.797930 -30.324589 -3.031950 -3.737029 2.907068 0.465620 0.215370 -0.245310 0.375860 14.302546 10.953509 9.626609 26.808893 -8.615120 -4.585707 67.452290 41.530053 19.934614 1.809151 -2.057261 -0.303670 0.385760 -0.103010 -0.197900 
1.791210 17.137660 0.631140 2.444647 -10.997585 -0.394609 -15.237412 12.892695 3.519301 10.953516 -5.473855 -10.029052 -21.013733 18.236438 39.217653 0.740157 10.434734 1.184890 0.603780 0.250790 0.280180 18.430094 -9.734065 2.681647 6.791375 1.205435 -11.153795 4.884939 -4.372005 13.458128 -0.218904 -3.164406 3.582487 0.282230 0.425770 0.095270 -3.665276 -3.222614 -7.354592 10.402133 -5.373890 7.386360 -11.826259 -2.920541 7.576644 2.043561 -9.341878 -10.071840 -20.986219 12.302567 28.419621 3.459220 3.388220 -5.670030 -18.904531 -7.080290 0.497802 -37.726875 -16.643523 0.366968 3.552549 -25.883904 -2.010645 -3.751192 2.907780 0.483600 0.202810 -0.231600 0.366330 14.495779 11.101553 9.238988 27.399798 -6.619096 -4.403896 67.543174 41.341758 20.124507 1.845177 -2.039993 -0.297820 0.359140 -0.105530 -0.208600 
1.786450 17.123530 0.737420 2.639689 -12.536206 -1.554088 -15.237578 12.615912 3.836256 12.775157 -6.252437 -11.955469 -23.181861 21.375420 43.807036 1.052295 11.634663 0.791127 0.631410 0.274140 0.316490 18.453582 -9.714721 2.539681 5.814080 0.778850 -9.603891 5.573869 -4.893687 14.722260 -0.298348 -3.405392 3.488720 0.281070 0.380770 0.105310 -3.721916 -2.994435 -7.468524 10.801222 -4.977396 7.597374 -11.890753 -2.525150 7.301409 2.124395 -9.311104 -9.982396 -21.443883 12.989677 30.331994 3.392390 3.747570 -5.938770 -18.952625 -6.650462 0.595820 -39.319412 -15.823596 1.126739 0.397339 -21.226040 -1.285859 -3.755635 2.897549 0.512020 0.171920 -0.190670 0.361130 14.279310 10.887041 8.717736 28.769984 -4.652097 -4.393225 67.493654 41.256505 20.242236 1.874150 -2.019407 -0.276850 0.342350 -0.123220 -0.218040 
1.786440 17.122610 0.828940 2.366936 -14.189564 -3.092532 -15.200178 12.358325 4.151815 14.862215 -6.737282 -13.669110 -24.570205 24.488637 48.413253 1.353052 12.692738 0.438014 0.704450 0.352720 0.394280 18.504457 -9.729275 2.452312 5.401289 0.307273 -7.705718 5.365800 -5.239234 16.050363 -0.423780 -3.602755 3.400445 0.286860 0.270760 0.118740 -3.872367 -2.705171 -7.650616 12.043930 -4.736028 8.790561 -12.074654 -2.182021 6.730229 2.328645 -9.274178 -10.123723 -22.436161 13.940550 33.663363 3.232670 4.270080 -7.543870 -19.815442 -6.693951 0.794492 -40.208358 -14.535069 1.444563 -2.703234 -17.095818 -0.783311 -3.690102 2.890347 0.581670 0.091890 -0.089680 0.358340 14.596851 11.054994 8.375104 29.836586 -3.106805 -4.640722 67.785618 41.207345 20.415026 1.921920 -1.986629 -0.225920 0.310250 -0.175220 -0.233150 
1.782880 17.100860 0.919810 2.545824 -15.646044 -4.575639 -15.190025 12.104956 4.473956 16.179265 -7.365863 -15.842379 -24.929681 27.521348 53.908340 1.630061 13.778360 0.099403 0.759930 0.403460 0.462400 18.534958 -9.722313 2.362407 4.686965 -0.254118 -5.646559 5.100716 -5.425332 16.298962 -0.519856 -3.747452 3.339511 0.295370 0.182900 0.119750 -3.959238 -2.474827 -7.817792 12.629297 -4.577865 9.784965 -12.257023 -1.935709 6.103024 2.521793 -9.192442 -10.125986 -23.174965 14.815322 36.771707 2.975580 4.613960 -8.944210 -20.368116 -6.278014 0.861168 -41.690302 -13.167231 1.602817 -4.268425 -13.257118 -0.685467 -3.648240 2.862199 0.648680 0.027530 -0.017410 0.347190 14.663775 10.793274 7.849265 31.834394 -1.275007 -4.780815 68.148928 41.064680 20.585614 1.951126 -1.949952 -0.202090 0.297070 -0.206120 -0.259160 
1.772580 17.065990 1.024690 2.668269 -17.189897 -5.646691 -15.181545 11.806699 4.791826 17.597595 -7.745761 -18.194488 -25.002226 30.774178 59.375676 1.912173 14.888327 -0.191826 0.752040 0.381090 0.487800 18.578870 -9.688295 2.277562 4.126654 -0.797273 -3.677391 4.734656 -5.496922 16.100084 -0.574933 -3.858714 3.309426 0.282360 0.159490 0.088730 -4.083290 -2.201084 -7.937259 13.598442 -4.262013 9.962825 -12.476505 -1.585588 5.568054 2.606699 -9.170628 -10.242573 -23.977553 15.707977 39.601901 3.143820 4.624230 -8.991820 -20.965051 -5.853944 1.050676 -43.617447 -11.181792 1.383633 -5.405669 -10.280575 -0.702940 -3.630786 2.791284 0.698760 -0.008560 0.005180 0.332660 14.995520 10.566780 7.541019 34.358283 -0.229221 -5.151912 68.292911 41.063967 20.629264 1.980204 -1.889558 -0.227870 0.330120 -0.204920 -0.280040 
